<svg xmlns="http://www.w3.org/2000/svg" xmlns:xlink="http://www.w3.org/1999/xlink" width="500" zoomAndPan="magnify" viewBox="0 0 375 374.999991" height="500" preserveAspectRatio="xMidYMid meet" version="1.0"><defs><g/><clipPath id="b95e1e8aac"><path d="M 112.984375 66.902344 L 262 66.902344 L 262 213.152344 L 112.984375 213.152344 Z M 112.984375 66.902344 " clip-rule="nonzero"/></clipPath></defs><g clip-path="url(#b95e1e8aac)"><path fill="#38b6ff" d="M 168.640625 185.535156 L 174.15625 173.160156 L 178.621094 175.140625 L 173.308594 187.0625 C 177.410156 188.179688 181.71875 188.777344 186.164062 188.777344 C 192.085938 188.777344 197.765625 187.71875 203.023438 185.789062 L 201.175781 182.71875 L 205.367188 180.210938 L 207.558594 183.851562 C 215.449219 180.003906 222.15625 174.097656 226.964844 166.835938 L 219.023438 161.554688 L 221.734375 157.5 L 229.457031 162.632812 C 232.664062 156.550781 234.621094 149.714844 234.980469 142.464844 L 227.710938 142.464844 L 227.710938 137.589844 L 234.980469 137.589844 C 234.125 120.328125 224.222656 105.402344 209.917969 97.433594 L 207.960938 101.988281 L 203.46875 100.066406 L 205.53125 95.269531 C 201.347656 93.464844 196.863281 92.222656 192.175781 91.644531 C 191.132812 92.457031 189.925781 93.066406 188.609375 93.40625 L 188.609375 103.464844 L 183.722656 103.464844 L 183.722656 93.40625 C 182.40625 93.066406 181.195312 92.457031 180.15625 91.644531 C 165.253906 93.476562 152.40625 102.023438 144.761719 114.148438 L 150.925781 118.542969 L 148.085938 122.511719 L 142.355469 118.425781 C 139.457031 124.253906 137.6875 130.738281 137.347656 137.589844 L 149.507812 137.589844 L 149.507812 142.464844 L 137.347656 142.464844 C 137.5625 146.816406 138.359375 151.019531 139.648438 155 L 150.957031 149.988281 L 152.941406 154.441406 L 141.386719 159.5625 C 146.617188 171.441406 156.460938 180.851562 168.640625 185.535156 Z M 132.398438 186.339844 C 132.398438 189.027344 134.59375 191.214844 137.285156 191.214844 C 139.980469 191.214844 142.175781 189.027344 142.175781 186.339844 C 142.175781 183.652344 139.980469 181.464844 137.285156 181.464844 C 134.59375 181.464844 132.398438 183.652344 132.398438 186.339844 Z M 191.050781 83.964844 C 191.050781 81.277344 188.859375 79.089844 186.164062 79.089844 C 183.46875 79.089844 181.277344 81.277344 181.277344 83.964844 C 181.277344 84.917969 181.558594 85.808594 182.035156 86.558594 C 183.398438 86.457031 184.773438 86.402344 186.164062 86.402344 C 187.554688 86.402344 188.933594 86.457031 190.296875 86.558594 C 190.773438 85.808594 191.050781 84.917969 191.050781 83.964844 Z M 122.625 159.527344 C 119.929688 159.527344 117.734375 161.714844 117.734375 164.402344 C 117.734375 167.089844 119.929688 169.277344 122.625 169.277344 C 125.316406 169.277344 127.511719 167.089844 127.511719 164.402344 C 127.511719 161.714844 125.316406 159.527344 122.625 159.527344 Z M 159.28125 203.402344 C 159.28125 206.089844 161.476562 208.277344 164.167969 208.277344 C 166.863281 208.277344 169.058594 206.089844 169.058594 203.402344 C 169.058594 200.714844 166.863281 198.527344 164.167969 198.527344 C 161.476562 198.527344 159.28125 200.714844 159.28125 203.402344 Z M 213.046875 203.402344 C 215.742188 203.402344 217.933594 201.214844 217.933594 198.527344 C 217.933594 195.839844 215.742188 193.652344 213.046875 193.652344 C 210.351562 193.652344 208.160156 195.839844 208.160156 198.527344 C 208.160156 201.214844 210.351562 203.402344 213.046875 203.402344 Z M 249.707031 183.902344 C 252.402344 183.902344 254.59375 181.714844 254.59375 179.027344 C 254.59375 176.339844 252.402344 174.152344 249.707031 174.152344 C 247.011719 174.152344 244.816406 176.339844 244.816406 179.027344 C 244.816406 181.714844 247.011719 183.902344 249.707031 183.902344 Z M 252.148438 144.902344 C 254.84375 144.902344 257.039062 142.714844 257.039062 140.027344 C 257.039062 137.339844 254.84375 135.152344 252.148438 135.152344 C 249.453125 135.152344 247.261719 137.339844 247.261719 140.027344 C 247.261719 142.714844 249.453125 144.902344 252.148438 144.902344 Z M 254.59375 91.277344 C 254.59375 88.589844 252.402344 86.402344 249.707031 86.402344 C 247.011719 86.402344 244.816406 88.589844 244.816406 91.277344 C 244.816406 93.964844 247.011719 96.152344 249.707031 96.152344 C 252.402344 96.152344 254.59375 93.964844 254.59375 91.277344 Z M 220.378906 76.652344 C 220.378906 73.964844 218.1875 71.777344 215.492188 71.777344 C 212.796875 71.777344 210.601562 73.964844 210.601562 76.652344 C 210.601562 79.339844 212.796875 81.527344 215.492188 81.527344 C 218.1875 81.527344 220.378906 79.339844 220.378906 76.652344 Z M 149.507812 71.777344 C 146.8125 71.777344 144.617188 73.964844 144.617188 76.652344 C 144.617188 79.339844 146.8125 81.527344 149.507812 81.527344 C 152.199219 81.527344 154.394531 79.339844 154.394531 76.652344 C 154.394531 73.964844 152.199219 71.777344 149.507812 71.777344 Z M 127.511719 101.027344 C 124.816406 101.027344 122.625 103.214844 122.625 105.902344 C 122.625 108.589844 124.816406 110.777344 127.511719 110.777344 C 130.207031 110.777344 132.398438 108.589844 132.398438 105.902344 C 132.398438 103.214844 130.207031 101.027344 127.511719 101.027344 Z M 122.625 135.152344 C 119.929688 135.152344 117.734375 137.339844 117.734375 140.027344 C 117.734375 142.714844 119.929688 144.902344 122.625 144.902344 C 125.316406 144.902344 127.511719 142.714844 127.511719 140.027344 C 127.511719 137.339844 125.316406 135.152344 122.625 135.152344 Z M 132.457031 142.464844 L 132.089844 142.464844 C 131.003906 146.664062 127.171875 149.777344 122.625 149.777344 C 117.234375 149.777344 112.847656 145.402344 112.847656 140.027344 C 112.847656 134.652344 117.234375 130.277344 122.625 130.277344 C 127.171875 130.277344 131.003906 133.390625 132.089844 137.589844 L 132.457031 137.589844 C 132.8125 129.683594 134.890625 122.21875 138.328125 115.558594 L 134.429688 112.78125 C 132.660156 114.554688 130.210938 115.652344 127.511719 115.652344 C 122.121094 115.652344 117.734375 111.277344 117.734375 105.902344 C 117.734375 100.527344 122.121094 96.152344 127.511719 96.152344 C 132.902344 96.152344 137.285156 100.527344 137.285156 105.902344 C 137.285156 106.824219 137.15625 107.714844 136.914062 108.5625 L 140.777344 111.3125 C 145.140625 104.476562 151.011719 98.6875 157.917969 94.417969 L 152.964844 85.769531 C 151.886719 86.175781 150.722656 86.402344 149.507812 86.402344 C 144.117188 86.402344 139.730469 82.027344 139.730469 76.652344 C 139.730469 71.277344 144.117188 66.902344 149.507812 66.902344 C 154.898438 66.902344 159.28125 71.277344 159.28125 76.652344 C 159.28125 79.046875 158.410156 81.238281 156.96875 82.9375 L 162.183594 92.042969 C 166.773438 89.75 171.730469 88.097656 176.941406 87.195312 C 176.585938 86.183594 176.390625 85.097656 176.390625 83.964844 C 176.390625 78.589844 180.773438 74.214844 186.164062 74.214844 C 191.554688 74.214844 195.941406 78.589844 195.941406 83.964844 C 195.941406 85.097656 195.742188 86.183594 195.386719 87.195312 C 199.597656 87.921875 203.640625 89.140625 207.457031 90.789062 L 210.050781 84.75 C 207.4375 82.996094 205.714844 80.019531 205.714844 76.652344 C 205.714844 71.277344 210.101562 66.902344 215.492188 66.902344 C 220.882812 66.902344 225.265625 71.277344 225.265625 76.652344 C 225.265625 82.027344 220.882812 86.402344 215.492188 86.402344 C 215.214844 86.402344 214.945312 86.386719 214.675781 86.363281 L 211.855469 92.929688 C 218.292969 96.4375 223.941406 101.222656 228.445312 106.9375 L 241.183594 96.046875 C 240.386719 94.636719 239.929688 93.011719 239.929688 91.277344 C 239.929688 85.902344 244.316406 81.527344 249.707031 81.527344 C 255.097656 81.527344 259.480469 85.902344 259.480469 91.277344 C 259.480469 96.652344 255.097656 101.027344 249.707031 101.027344 C 247.824219 101.027344 246.066406 100.492188 244.574219 99.570312 L 231.300781 110.917969 C 236.339844 118.667969 239.429688 127.789062 239.871094 137.589844 L 242.683594 137.589844 C 243.769531 133.390625 247.601562 130.277344 252.148438 130.277344 C 257.539062 130.277344 261.925781 134.652344 261.925781 140.027344 C 261.925781 145.402344 257.539062 149.777344 252.148438 149.777344 C 247.601562 149.777344 243.769531 146.664062 242.683594 142.464844 L 239.871094 142.464844 C 239.5 150.710938 237.253906 158.476562 233.542969 165.351562 L 243.191406 171.765625 C 244.921875 170.21875 247.203125 169.277344 249.707031 169.277344 C 255.097656 169.277344 259.480469 173.652344 259.480469 179.027344 C 259.480469 184.402344 255.097656 188.777344 249.707031 188.777344 C 244.316406 188.777344 239.929688 184.402344 239.929688 179.027344 C 239.929688 177.902344 240.125 176.824219 240.476562 175.820312 L 231.03125 169.539062 C 225.816406 177.398438 218.585938 183.8125 210.082031 188.046875 L 210.695312 189.0625 C 211.449219 188.878906 212.234375 188.777344 213.046875 188.777344 C 218.4375 188.777344 222.824219 193.152344 222.824219 198.527344 C 222.824219 203.902344 218.4375 208.277344 213.046875 208.277344 C 207.65625 208.277344 203.273438 203.902344 203.273438 198.527344 C 203.273438 195.710938 204.476562 193.171875 206.394531 191.394531 L 205.578125 190.035156 C 199.550781 192.367188 193.007812 193.652344 186.164062 193.652344 C 181.011719 193.652344 176.023438 192.921875 171.304688 191.566406 L 169.632812 195.320312 C 172.230469 197.074219 173.945312 200.042969 173.945312 203.402344 C 173.945312 208.777344 169.558594 213.152344 164.167969 213.152344 C 158.78125 213.152344 154.394531 208.777344 154.394531 203.402344 C 154.394531 198.027344 158.78125 193.652344 164.167969 193.652344 C 164.453125 193.652344 164.730469 193.667969 165.007812 193.691406 L 166.652344 189.996094 C 159.890625 187.359375 153.792969 183.394531 148.675781 178.425781 L 145.703125 181.390625 C 146.566406 182.84375 147.0625 184.535156 147.0625 186.339844 C 147.0625 191.714844 142.675781 196.089844 137.285156 196.089844 C 131.898438 196.089844 127.511719 191.714844 127.511719 186.339844 C 127.511719 180.964844 131.898438 176.589844 137.285156 176.589844 C 139.097656 176.589844 140.792969 177.085938 142.25 177.945312 L 145.328125 174.871094 C 141.910156 170.886719 139.066406 166.402344 136.921875 161.542969 L 132.359375 163.566406 C 132.386719 163.839844 132.398438 164.121094 132.398438 164.402344 C 132.398438 169.777344 128.015625 174.152344 122.625 174.152344 C 117.234375 174.152344 112.847656 169.777344 112.847656 164.402344 C 112.847656 159.027344 117.234375 154.652344 122.625 154.652344 C 125.992188 154.652344 128.96875 156.359375 130.726562 158.953125 L 135.160156 156.992188 C 133.617188 152.394531 132.6875 147.519531 132.457031 142.464844 " fill-opacity="1" fill-rule="nonzero"/></g><path fill="#38b6ff" d="M 210.601562 118.089844 C 207.910156 118.089844 205.714844 120.277344 205.714844 122.964844 C 205.714844 125.652344 207.910156 127.839844 210.601562 127.839844 C 213.296875 127.839844 215.492188 125.652344 215.492188 122.964844 C 215.492188 120.277344 213.296875 118.089844 210.601562 118.089844 Z M 210.601562 132.714844 C 208.164062 132.714844 205.933594 131.816406 204.21875 130.339844 L 202.554688 132 L 199.101562 128.554688 L 201.402344 126.257812 C 201.03125 125.226562 200.828125 124.117188 200.828125 122.964844 C 200.828125 117.589844 205.214844 113.214844 210.601562 113.214844 C 215.992188 113.214844 220.378906 117.589844 220.378906 122.964844 C 220.378906 128.339844 215.992188 132.714844 210.601562 132.714844 " fill-opacity="1" fill-rule="nonzero"/><path fill="#38b6ff" d="M 193.496094 174.152344 C 196.191406 174.152344 198.382812 171.964844 198.382812 169.277344 C 198.382812 166.589844 196.191406 164.402344 193.496094 164.402344 C 190.800781 164.402344 188.609375 166.589844 188.609375 169.277344 C 188.609375 171.964844 190.800781 174.152344 193.496094 174.152344 Z M 188.1875 161.097656 L 186.289062 155.421875 L 190.925781 153.878906 L 192.820312 159.554688 C 193.046875 159.539062 193.269531 159.527344 193.496094 159.527344 C 198.886719 159.527344 203.273438 163.902344 203.273438 169.277344 C 203.273438 174.652344 198.886719 179.027344 193.496094 179.027344 C 188.105469 179.027344 183.722656 174.652344 183.722656 169.277344 C 183.722656 165.851562 185.5 162.835938 188.1875 161.097656 " fill-opacity="1" fill-rule="nonzero"/><path fill="#38b6ff" d="M 171.5 113.214844 C 168.808594 113.214844 166.613281 115.402344 166.613281 118.089844 C 166.613281 120.777344 168.808594 122.964844 171.5 122.964844 C 174.195312 122.964844 176.390625 120.777344 176.390625 118.089844 C 176.390625 115.402344 174.195312 113.214844 171.5 113.214844 Z M 161.726562 118.089844 C 161.726562 112.714844 166.109375 108.339844 171.5 108.339844 C 176.890625 108.339844 181.277344 112.714844 181.277344 118.089844 C 181.277344 119.894531 180.78125 121.585938 179.917969 123.039062 L 183.003906 126.117188 L 179.550781 129.5625 L 176.464844 126.484375 C 175.007812 127.34375 173.3125 127.839844 171.5 127.839844 C 166.109375 127.839844 161.726562 123.464844 161.726562 118.089844 " fill-opacity="1" fill-rule="nonzero"/><path fill="#38b6ff" d="M 165.390625 152.214844 C 167.414062 152.214844 169.058594 150.574219 169.058594 148.558594 C 169.058594 146.542969 167.414062 144.902344 165.390625 144.902344 C 163.371094 144.902344 161.726562 146.542969 161.726562 148.558594 C 161.726562 150.574219 163.371094 152.214844 165.390625 152.214844 Z M 165.390625 140.027344 C 170.109375 140.027344 173.945312 143.855469 173.945312 148.558594 C 173.945312 153.261719 170.109375 157.089844 165.390625 157.089844 C 160.675781 157.089844 156.839844 153.261719 156.839844 148.558594 C 156.839844 143.855469 160.675781 140.027344 165.390625 140.027344 " fill-opacity="1" fill-rule="nonzero"/><path fill="#38b6ff" d="M 211.824219 154.652344 C 213.847656 154.652344 215.492188 153.011719 215.492188 150.996094 C 215.492188 148.980469 213.847656 147.339844 211.824219 147.339844 C 209.804688 147.339844 208.160156 148.980469 208.160156 150.996094 C 208.160156 153.011719 209.804688 154.652344 211.824219 154.652344 Z M 203.550781 148.832031 L 197.027344 144.492188 L 199.738281 140.4375 L 206.097656 144.664062 C 207.617188 143.296875 209.625 142.464844 211.824219 142.464844 C 216.542969 142.464844 220.378906 146.292969 220.378906 150.996094 C 220.378906 155.699219 216.542969 159.527344 211.824219 159.527344 C 207.109375 159.527344 203.273438 155.699219 203.273438 150.996094 C 203.273438 150.25 203.371094 149.523438 203.550781 148.832031 " fill-opacity="1" fill-rule="nonzero"/><g fill="#ffffff" fill-opacity="1"><g transform="translate(86.444365, 268.046819)"><g><path d="M 19.015625 -27.660156 C 19.015625 -31.625 16.867188 -33.730469 12.945312 -33.730469 L 8.222656 -33.730469 C 4.257812 -33.730469 2.109375 -31.625 2.109375 -27.660156 L 2.109375 -6.070312 C 2.109375 -2.109375 4.257812 0 8.222656 0 L 12.945312 0 C 16.867188 0 19.015625 -2.109375 19.015625 -6.070312 L 19.015625 -10.625 C 19.015625 -11.046875 18.761719 -11.300781 18.339844 -11.300781 L 14.125 -11.300781 C 13.660156 -11.300781 13.449219 -11.046875 13.449219 -10.625 L 13.449219 -7.253906 C 13.449219 -6.113281 12.859375 -5.566406 11.765625 -5.566406 L 9.570312 -5.566406 C 8.476562 -5.566406 7.886719 -6.113281 7.886719 -7.253906 L 7.886719 -26.480469 C 7.886719 -27.574219 8.433594 -28.167969 9.570312 -28.167969 L 11.765625 -28.167969 C 12.859375 -28.167969 13.449219 -27.574219 13.449219 -26.480469 L 13.449219 -23.105469 C 13.449219 -22.683594 13.660156 -22.433594 14.125 -22.433594 L 18.339844 -22.433594 C 18.761719 -22.433594 19.015625 -22.683594 19.015625 -23.105469 Z M 19.015625 -27.660156 "/></g></g></g><g fill="#ffffff" fill-opacity="1"><g transform="translate(115.91865, 268.046819)"><g><path d="M 2.109375 -6.070312 C 2.109375 -2.109375 4.214844 0 8.179688 0 L 12.902344 0 C 16.867188 0 18.972656 -2.109375 18.972656 -6.070312 L 18.972656 -27.660156 C 18.972656 -31.625 16.867188 -33.730469 12.902344 -33.730469 L 8.179688 -33.730469 C 4.214844 -33.730469 2.109375 -31.625 2.109375 -27.660156 Z M 9.402344 -5.4375 C 8.304688 -5.4375 7.714844 -5.988281 7.714844 -7.125 L 7.714844 -26.605469 C 7.714844 -27.703125 8.304688 -28.292969 9.402344 -28.292969 L 11.847656 -28.292969 C 12.945312 -28.292969 13.535156 -27.703125 13.535156 -26.605469 L 13.535156 -7.125 C 13.535156 -5.988281 12.945312 -5.4375 11.847656 -5.4375 Z M 9.402344 -5.4375 "/></g></g></g><g fill="#ffffff" fill-opacity="1"><g transform="translate(145.350775, 268.046819)"><g><path d="M 16.824219 -33.730469 C 16.316406 -33.730469 16.023438 -33.480469 15.894531 -32.972656 L 11.425781 -10.371094 L 7 -32.972656 C 6.871094 -33.480469 6.578125 -33.730469 6.070312 -33.730469 L 2.066406 -33.730469 C 1.433594 -33.730469 1.179688 -33.394531 1.308594 -32.804688 L 8.390625 -0.757812 C 8.515625 -0.253906 8.8125 0 9.320312 0 L 13.535156 0 C 14.039062 0 14.335938 -0.253906 14.460938 -0.757812 L 21.589844 -32.804688 C 21.714844 -33.394531 21.460938 -33.730469 20.828125 -33.730469 Z M 16.824219 -33.730469 "/></g></g></g><g fill="#ffffff" fill-opacity="1"><g transform="translate(176.595953, 268.046819)"><g><path d="M 2.78125 -33.730469 C 2.320312 -33.730469 2.109375 -33.480469 2.109375 -33.058594 L 2.109375 -0.675781 C 2.109375 -0.253906 2.320312 0 2.78125 0 L 7.167969 0 C 7.589844 0 7.84375 -0.253906 7.84375 -0.675781 L 7.84375 -33.058594 C 7.84375 -33.480469 7.589844 -33.730469 7.167969 -33.730469 Z M 2.78125 -33.730469 "/></g></g></g><g fill="#ffffff" fill-opacity="1"><g transform="translate(194.896742, 268.046819)"><g><path d="M 2.109375 -0.675781 C 2.109375 -0.210938 2.320312 0 2.78125 0 L 12.902344 0 C 16.867188 0 18.972656 -2.109375 18.972656 -6.070312 L 18.972656 -27.617188 C 18.972656 -31.582031 16.867188 -33.730469 12.902344 -33.730469 L 2.78125 -33.730469 C 2.320312 -33.730469 2.109375 -33.480469 2.109375 -33.058594 Z M 7.84375 -5.566406 L 7.84375 -28.167969 L 11.722656 -28.167969 C 12.816406 -28.167969 13.410156 -27.574219 13.410156 -26.4375 L 13.410156 -7.253906 C 13.410156 -6.113281 12.816406 -5.566406 11.722656 -5.566406 Z M 7.84375 -5.566406 "/></g></g></g><g fill="#ffffff" fill-opacity="1"><g transform="translate(224.328861, 268.046819)"><g><path d="M 2.109375 -13.238281 C 2.109375 -12.691406 2.402344 -12.398438 2.953125 -12.398438 L 9.613281 -12.398438 C 10.160156 -12.398438 10.457031 -12.691406 10.457031 -13.238281 L 10.457031 -17.117188 C 10.457031 -17.667969 10.160156 -17.960938 9.613281 -17.960938 L 2.953125 -17.960938 C 2.402344 -17.960938 2.109375 -17.667969 2.109375 -17.117188 Z M 2.109375 -13.238281 "/></g></g></g><g fill="#ffffff" fill-opacity="1"><g transform="translate(245.24383, 268.046819)"><g><path d="M 2.910156 -32.679688 C 2.359375 -32.636719 2.109375 -32.339844 2.109375 -31.792969 L 2.109375 -27.746094 C 2.109375 -27.195312 2.445312 -26.902344 2.992188 -26.984375 L 5.609375 -27.324219 L 5.609375 -0.675781 C 5.609375 -0.253906 5.820312 0 6.28125 0 L 10.667969 0 C 11.089844 0 11.34375 -0.253906 11.34375 -0.675781 L 11.34375 -33.058594 C 11.34375 -33.480469 11.089844 -33.730469 10.667969 -33.730469 Z M 2.910156 -32.679688 "/></g></g></g><g fill="#ffffff" fill-opacity="1"><g transform="translate(267.465886, 268.046819)"><g><path d="M 11.679688 -13.027344 L 6.578125 -0.96875 C 6.324219 -0.378906 6.578125 0 7.210938 0 L 11.59375 0 C 12.101562 0 12.398438 -0.210938 12.566406 -0.632812 L 18.550781 -14.882812 C 18.847656 -15.644531 18.972656 -16.191406 18.972656 -16.992188 L 18.972656 -27.828125 C 18.972656 -31.664062 16.90625 -33.730469 13.070312 -33.730469 L 8.011719 -33.730469 C 4.175781 -33.730469 2.109375 -31.664062 2.109375 -27.828125 L 2.109375 -18.933594 C 2.109375 -15.09375 4.175781 -13.027344 8.011719 -13.027344 Z M 11.722656 -28.167969 C 12.816406 -28.167969 13.410156 -27.574219 13.410156 -26.480469 L 13.410156 -20.28125 C 13.410156 -19.183594 12.816406 -18.59375 11.722656 -18.59375 L 9.359375 -18.59375 C 8.265625 -18.59375 7.675781 -19.183594 7.675781 -20.28125 L 7.675781 -26.480469 C 7.675781 -27.574219 8.265625 -28.167969 9.359375 -28.167969 Z M 11.722656 -28.167969 "/></g></g></g><g fill="#ffffff" fill-opacity="1"><g transform="translate(110.138683, 301.56707)"><g><path d="M 8.78125 0 L 4.40625 0 L 0.15625 -14.5 L 3.859375 -14.5 L 4.25 -12.375 L 6.5625 -3.328125 L 6.78125 -3.328125 L 9.484375 -12.171875 L 9.890625 -14.5 L 13.453125 -14.5 Z M 8.78125 0 "/></g></g></g><g fill="#ffffff" fill-opacity="1"><g transform="translate(128.036043, 301.56707)"><g><path d="M 5.09375 -4.65625 L 5.234375 0 L 1.578125 0 L 1.78125 -4.296875 L 1.578125 -14.5 L 5.296875 -14.5 Z M 5.09375 -4.65625 "/></g></g></g><g fill="#ffffff" fill-opacity="1"><g transform="translate(139.399536, 301.56707)"><g><path d="M 6.578125 -14.71875 C 7.867188 -14.71875 9.175781 -14.460938 10.5 -13.953125 L 9.90625 -10.890625 L 9.375 -10.6875 C 8.800781 -11.0625 8.226562 -11.351562 7.65625 -11.5625 C 7.09375 -11.78125 6.597656 -11.890625 6.171875 -11.890625 C 5.679688 -11.890625 5.289062 -11.765625 5 -11.515625 C 4.707031 -11.265625 4.5625 -10.976562 4.5625 -10.65625 C 4.5625 -10.28125 4.742188 -9.957031 5.109375 -9.6875 C 5.472656 -9.425781 6.054688 -9.117188 6.859375 -8.765625 C 7.691406 -8.367188 8.363281 -8.007812 8.875 -7.6875 C 9.394531 -7.375 9.847656 -6.945312 10.234375 -6.40625 C 10.617188 -5.863281 10.8125 -5.203125 10.8125 -4.421875 C 10.8125 -3.554688 10.570312 -2.769531 10.09375 -2.0625 C 9.625 -1.363281 8.953125 -0.804688 8.078125 -0.390625 C 7.210938 0.015625 6.210938 0.21875 5.078125 0.21875 C 3.566406 0.21875 2.066406 -0.078125 0.578125 -0.671875 L 1.09375 -3.9375 L 1.484375 -4.15625 C 2.109375 -3.632812 2.789062 -3.226562 3.53125 -2.9375 C 4.28125 -2.644531 4.921875 -2.5 5.453125 -2.5 C 6.023438 -2.5 6.457031 -2.625 6.75 -2.875 C 7.039062 -3.132812 7.1875 -3.4375 7.1875 -3.78125 C 7.1875 -4.175781 7 -4.507812 6.625 -4.78125 C 6.25 -5.050781 5.664062 -5.367188 4.875 -5.734375 C 4.0625 -6.109375 3.394531 -6.453125 2.875 -6.765625 C 2.363281 -7.085938 1.921875 -7.519531 1.546875 -8.0625 C 1.171875 -8.601562 0.984375 -9.265625 0.984375 -10.046875 C 0.984375 -10.929688 1.21875 -11.726562 1.6875 -12.4375 C 2.164062 -13.144531 2.828125 -13.703125 3.671875 -14.109375 C 4.515625 -14.515625 5.484375 -14.71875 6.578125 -14.71875 Z M 6.578125 -14.71875 "/></g></g></g><g fill="#ffffff" fill-opacity="1"><g transform="translate(155.298563, 301.56707)"><g><path d="M 13.125 -7.140625 L 13.09375 -5.0625 C 13.113281 -3.363281 12.59375 -2.054688 11.53125 -1.140625 C 10.476562 -0.234375 8.976562 0.21875 7.03125 0.21875 C 5.144531 0.21875 3.703125 -0.226562 2.703125 -1.125 C 1.710938 -2.019531 1.238281 -3.304688 1.28125 -4.984375 L 1.328125 -7.1875 L 1.234375 -14.5 L 4.875 -14.5 L 4.71875 -5.484375 C 4.707031 -4.523438 4.898438 -3.820312 5.296875 -3.375 C 5.703125 -2.925781 6.332031 -2.703125 7.1875 -2.703125 C 8.0625 -2.703125 8.703125 -2.921875 9.109375 -3.359375 C 9.523438 -3.796875 9.722656 -4.472656 9.703125 -5.390625 L 9.546875 -14.5 L 13.25 -14.5 Z M 13.125 -7.140625 "/></g></g></g><g fill="#ffffff" fill-opacity="1"><g transform="translate(174.20631, 301.56707)"><g><path d="M 13.4375 0 L 9.734375 0 L 9.34375 -2.09375 L 9.140625 -2.921875 L 6.53125 -2.96875 L 4.296875 -2.90625 L 4.109375 -2.3125 L 3.703125 0 L 0.140625 0 L 4.8125 -14.5 L 9.1875 -14.5 Z M 8.453125 -5.65625 L 7.03125 -11.171875 L 6.8125 -11.171875 L 5.125 -5.65625 L 6.78125 -5.625 Z M 8.453125 -5.65625 "/></g></g></g><g fill="#ffffff" fill-opacity="1"><g transform="translate(192.373096, 301.56707)"><g><path d="M 9.890625 -2.71875 L 9.640625 0 L 1.484375 0 L 1.6875 -4.296875 L 1.484375 -14.5 L 5.1875 -14.5 L 4.984375 -4.65625 L 5.0625 -2.984375 L 9.65625 -2.984375 Z M 9.890625 -2.71875 "/></g></g></g><g fill="#ffffff" fill-opacity="1"><g transform="translate(206.722853, 301.56707)"><g><path d="M 5.09375 -4.65625 L 5.234375 0 L 1.578125 0 L 1.78125 -4.296875 L 1.578125 -14.5 L 5.296875 -14.5 Z M 5.09375 -4.65625 "/></g></g></g><g fill="#ffffff" fill-opacity="1"><g transform="translate(218.086343, 301.56707)"><g><path d="M 11.734375 -11.890625 L 4.9375 -2.734375 L 9.296875 -2.734375 L 11.859375 -2.921875 L 12 -2.734375 L 11.703125 0.09375 L 8.140625 0 L 2.609375 0 L 0.65625 0.109375 L 0.65625 -2.5 L 7.5 -11.75 L 3.375 -11.75 L 0.8125 -11.546875 L 0.671875 -11.703125 L 0.9375 -14.53125 L 4.046875 -14.5 L 10.203125 -14.5 L 11.734375 -14.515625 Z M 11.734375 -11.890625 "/></g></g></g><g fill="#ffffff" fill-opacity="1"><g transform="translate(235.040661, 301.56707)"><g><path d="M 11.171875 -2.96875 L 11.375 -2.703125 L 11.140625 0 L 1.578125 0 L 1.78125 -4.296875 L 1.578125 -14.5 L 11.28125 -14.5 L 11.484375 -14.21875 L 11.234375 -11.53125 L 7.703125 -11.65625 L 5.234375 -11.640625 L 5.1875 -8.734375 L 7.546875 -8.734375 L 9.90625 -8.8125 L 10.109375 -8.53125 L 9.890625 -5.84375 L 7.296875 -5.90625 L 5.125 -5.90625 L 5.09375 -4.65625 L 5.140625 -2.859375 L 7.53125 -2.828125 Z M 11.171875 -2.96875 "/></g></g></g><g fill="#ffffff" fill-opacity="1"><g transform="translate(251.209125, 301.56707)"><g><path d="M 10 -5.734375 C 11.238281 -3.796875 12.363281 -2.171875 13.375 -0.859375 L 13.328125 -0.453125 C 12.179688 -0.078125 10.972656 0.15625 9.703125 0.25 L 9.34375 -0.046875 C 8.445312 -1.722656 7.671875 -3.257812 7.015625 -4.65625 L 5.09375 -4.65625 L 5.234375 0 L 1.578125 0 L 1.78125 -4.296875 L 1.578125 -14.5 L 7.6875 -14.515625 C 9.257812 -14.515625 10.46875 -14.132812 11.3125 -13.375 C 12.15625 -12.625 12.578125 -11.546875 12.578125 -10.140625 C 12.578125 -9.253906 12.351562 -8.425781 11.90625 -7.65625 C 11.457031 -6.894531 10.820312 -6.253906 10 -5.734375 Z M 5.171875 -7.390625 L 7.125 -7.296875 C 7.675781 -7.503906 8.082031 -7.8125 8.34375 -8.21875 C 8.601562 -8.625 8.734375 -9.148438 8.734375 -9.796875 C 8.734375 -10.503906 8.550781 -11.023438 8.1875 -11.359375 C 7.820312 -11.691406 7.25 -11.875 6.46875 -11.90625 L 5.25 -11.84375 Z M 5.171875 -7.390625 "/></g></g></g></svg>